/vscmnt/brussel_pixiu_data/_data_brussel/112/vsc11236/PredSimResults/SUBJ11_Dhondt2024_3seg/weighted-LRposFixed/worker_04.mot
version=1
nRows=4
nColumns=124
inDegrees=yes
endheader
                time	         pelvis_tilt	         pelvis_list	     pelvis_rotation	           pelvis_tx	           pelvis_ty	           pelvis_tz	       hip_flexion_r	     hip_adduction_r	      hip_rotation_r	        knee_angle_r	       ankle_angle_r	    subtalar_angle_r	         mtp_angle_r	       hip_flexion_l	     hip_adduction_l	      hip_rotation_l	        knee_angle_l	       ankle_angle_l	    subtalar_angle_l	         mtp_angle_l	    lumbar_extension	      lumbar_bending	     lumbar_rotation	          arm_flex_r	           arm_add_r	           arm_rot_r	        elbow_flex_r	          arm_flex_l	           arm_add_l	           arm_rot_l	        elbow_flex_l	glut_med1_r/activation	glut_med2_r/activation	glut_med3_r/activation	glut_min1_r/activation	glut_min2_r/activation	glut_min3_r/activation	semimem_r/activation	semiten_r/activation	bifemlh_r/activation	bifemsh_r/activation	    sar_r/activation	add_long_r/activation	add_brev_r/activation	add_mag1_r/activation	add_mag2_r/activation	add_mag3_r/activation	    tfl_r/activation	   pect_r/activation	   grac_r/activation	glut_max1_r/activation	glut_max2_r/activation	glut_max3_r/activation	iliacus_r/activation	  psoas_r/activation	quad_fem_r/activation	    gem_r/activation	   peri_r/activation	rect_fem_r/activation	vas_med_r/activation	vas_int_r/activation	vas_lat_r/activation	med_gas_r/activation	lat_gas_r/activation	 soleus_r/activation	tib_post_r/activation	flex_dig_r/activation	flex_hal_r/activation	tib_ant_r/activation	per_brev_r/activation	per_long_r/activation	per_tert_r/activation	ext_dig_r/activation	ext_hal_r/activation	glut_med1_l/activation	glut_med2_l/activation	glut_med3_l/activation	glut_min1_l/activation	glut_min2_l/activation	glut_min3_l/activation	semimem_l/activation	semiten_l/activation	bifemlh_l/activation	bifemsh_l/activation	    sar_l/activation	add_long_l/activation	add_brev_l/activation	add_mag1_l/activation	add_mag2_l/activation	add_mag3_l/activation	    tfl_l/activation	   pect_l/activation	   grac_l/activation	glut_max1_l/activation	glut_max2_l/activation	glut_max3_l/activation	iliacus_l/activation	  psoas_l/activation	quad_fem_l/activation	    gem_l/activation	   peri_l/activation	rect_fem_l/activation	vas_med_l/activation	vas_int_l/activation	vas_lat_l/activation	med_gas_l/activation	lat_gas_l/activation	 soleus_l/activation	tib_post_l/activation	flex_dig_l/activation	flex_hal_l/activation	tib_ant_l/activation	per_brev_l/activation	per_long_l/activation	per_tert_l/activation	ext_dig_l/activation	ext_hal_l/activation	 ercspn_r/activation	 ercspn_l/activation	 intobl_r/activation	 intobl_l/activation	 extobl_r/activation	 extobl_l/activation	
          0.00000000	         -2.92863236	         -1.96927241	          2.19196827	          0.00000000	          0.92296149	         -0.00385534	         24.66297296	          3.31866986	          1.59690019	         -3.22800292	          3.45934506	         -5.33333858	          0.17774965	        -14.67281291	          0.42828097	          8.65923776	         -7.52871095	         10.04249584	          0.06168192	         14.92199768	         -4.61250378	          0.72428218	         -1.93647768	        -15.02424233	        -13.45746665	         16.34191940	         23.56508029	          9.78213769	        -13.51149911	         19.36542507	         51.23235547	          0.01471682	          0.01004039	          0.01002604	          0.01000420	          0.01000452	          0.01000603	          0.12482489	          0.02892869	          0.02431039	          0.01000105	          0.01000159	          0.06442471	          0.16670785	          0.14230039	          0.13927152	          0.06605502	          0.01000287	          0.01032126	          0.02482011	          0.01471670	          0.01800618	          0.05052475	          0.01480920	          0.01304113	          0.01592716	          0.01001260	          0.01000200	          0.01000216	          0.07931315	          0.07833170	          0.06452092	          0.01000037	          0.01000077	          0.01000045	          0.01090189	          0.01001254	          0.01002642	          0.25228472	          0.17387321	          0.10620327	          0.14681326	          0.31846355	          0.03720554	          0.23004313	          0.13129145	          0.07845334	          0.29018256	          0.26241046	          0.18188855	          0.01058893	          0.01000334	          0.01000298	          0.05064907	          0.10320616	          0.01000051	          0.01000058	          0.01000102	          0.01000392	          0.01000307	          0.34075509	          0.01000252	          0.01000428	          0.02172774	          0.01782030	          0.01001241	          0.28139563	          0.42691475	          0.01295448	          0.02166033	          0.09794135	          0.20632555	          0.01000168	          0.01000171	          0.01000165	          0.39955032	          0.44631558	          0.37603536	          0.24293165	          0.29601924	          0.34837719	          0.01213174	          0.01000798	          0.10988729	          0.01596738	          0.01471970	          0.01472622	          0.01922184	          0.01000006	          0.03579973	          0.01000017	          0.09462887	          0.01000022	
          0.01278947	         -2.93019944	         -2.17360652	          2.37997050	          0.01565206	          0.92260631	         -0.00357821	         23.69887510	          3.72262414	          1.78173061	         -2.31405168	          2.36125368	         -5.71806288	          0.20687744	        -14.75784171	          0.16751933	          8.31453038	         -9.07141277	          9.50648914	          0.58099517	         16.32242912	         -4.46963388	          1.11990397	         -2.02952247	        -15.93498762	        -13.45778796	         16.16078994	         23.05484747	          9.57260995	        -13.52870202	         19.34357895	         52.58999205	          0.01213169	          0.01213006	          0.01000082	          0.01213207	          0.01213142	          0.01002707	          0.10289276	          0.02384607	          0.02003911	          0.01000033	          0.01000124	          0.05310620	          0.18937303	          0.15617201	          0.11483964	          0.05444937	          0.01000227	          0.02131023	          0.02046039	          0.01213149	          0.01484266	          0.04164778	          0.01220740	          0.01074995	          0.13900872	          0.01000133	          0.01000207	          0.01785433	          0.06538015	          0.06457121	          0.05318680	          0.01000008	          0.01000018	          0.01000004	          0.01000023	          0.01000143	          0.01000112	          0.25929153	          0.15902686	          0.09905286	          0.15046541	          0.34952907	          0.03066949	          0.24620807	          0.10822300	          0.06466876	          0.23919738	          0.21630424	          0.14993007	          0.01000638	          0.01000122	          0.01000100	          0.04174986	          0.08507338	          0.01471878	          0.01001498	          0.01000803	          0.01001661	          0.01000298	          0.28642102	          0.03043761	          0.01469077	          0.01791253	          0.01469355	          0.01001138	          0.23195397	          0.35190456	          0.01471850	          0.01785591	          0.08073267	          0.17956446	          0.01000280	          0.01000283	          0.01000277	          0.36357338	          0.40642009	          0.35316969	          0.23259185	          0.29501428	          0.34070987	          0.01000020	          0.01000596	          0.09727643	          0.01316190	          0.01213340	          0.01213885	          0.01584456	          0.01108234	          0.02950957	          0.01615373	          0.07800214	          0.01000020	
          0.02557894	         -2.92710959	         -2.38301322	          2.55604528	          0.03160823	          0.92231844	         -0.00329347	         22.72766750	          4.08970199	          1.98905505	         -1.95249922	          0.82352941	         -6.09426867	          0.22675265	        -14.75593961	         -0.10516338	          7.94245417	        -10.77455980	          8.81367138	          1.13551389	         17.80747084	         -4.31116890	          1.52778794	         -2.11284292	        -16.78919502	        -13.46700257	         16.17007147	         22.48648493	          9.26188611	        -13.54505734	         19.30810696	         53.89590449	          0.01000020	          0.01000022	          0.01000080	          0.01000070	          0.01000046	          0.01000044	          0.08481406	          0.01965706	          0.01651838	          0.01006131	          0.01471386	          0.04377581	          0.15771529	          0.12873617	          0.09466276	          0.04488251	          0.01000083	          0.01796898	          0.10720471	          0.01000087	          0.01223505	          0.03433027	          0.01472301	          0.01485445	          0.16354599	          0.03429181	          0.01000312	          0.01471741	          0.05389286	          0.05322608	          0.04384194	          0.01471740	          0.01471914	          0.01213172	          0.01471544	          0.01216447	          0.01424959	          0.21637001	          0.14203215	          0.08937192	          0.12402838	          0.40800633	          0.02528100	          0.20295027	          0.08920776	          0.05330618	          0.19717492	          0.17829893	          0.12358677	          0.01002375	          0.01000173	          0.01000167	          0.03441428	          0.07012606	          0.01213313	          0.01000160	          0.01000259	          0.01000826	          0.01000394	          0.23609676	          0.02509331	          0.01211198	          0.01476724	          0.01212003	          0.01001158	          0.19119911	          0.29077398	          0.01213268	          0.01471923	          0.06654761	          0.14801531	          0.01000418	          0.01000426	          0.01000374	          0.32187778	          0.36515341	          0.32826706	          0.21515999	          0.27719156	          0.32683455	          0.01000011	          0.01000053	          0.10778252	          0.01084941	          0.01000155	          0.01000618	          0.01306064	          0.01317212	          0.02432464	          0.01331556	          0.06429680	          0.01000109	
          0.03836841	         -2.92078115	         -2.60417302	          2.71526443	          0.04775423	          0.92212263	         -0.00301307	         21.71978322	          4.40798960	          2.22087926	         -1.68393915	         -1.00710721	         -6.46683366	          0.22108660	        -14.63815633	         -0.39287448	          7.54086098	        -12.66835784	          7.94887407	          1.71154943	         19.34921064	         -4.14462873	          1.95597454	         -2.18419146	        -17.56180141	        -13.49061516	         16.39323531	         21.85235636	          8.86673366	        -13.55676400	         19.26352858	         55.13654499	          0.18212720	          0.16927820	          0.18329662	          0.03946578	          0.13345922	          0.18252578	          0.06991191	          0.03807386	          0.02023332	          0.02165173	          0.01213384	          0.03608431	          0.13000412	          0.10611705	          0.07803060	          0.03699675	          0.01213568	          0.01481314	          0.08836931	          0.02183115	          0.01009005	          0.02829858	          0.01213630	          0.01224463	          0.13481042	          0.02826797	          0.09515848	          0.01213160	          0.04442399	          0.04387440	          0.03613906	          0.01213152	          0.01213299	          0.01000015	          0.01212997	          0.01002760	          0.01174626	          0.39208861	          0.17607675	          0.09415080	          0.44247680	          0.49535644	          0.18885829	          0.20120236	          0.07353358	          0.04394005	          0.27691626	          0.14697126	          0.10187207	          0.01123540	          0.01000097	          0.01000068	          0.02836760	          0.05780490	          0.01000202	          0.01000107	          0.01000123	          0.01000327	          0.01000224	          0.19461402	          0.02072419	          0.01000240	          0.01217411	          0.01000358	          0.01000220	          0.15760474	          0.23968409	          0.01000113	          0.01213349	          0.05485492	          0.12200844	          0.01000256	          0.01000260	          0.01000174	          0.26532234	          0.30099649	          0.27058924	          0.19277288	          0.22849008	          0.26941248	          0.01000012	          0.01008647	          0.11711628	          0.01000044	          0.01000016	          0.01000057	          0.03059370	          0.02798785	          0.02005087	          0.01097598	          0.05299955	          0.01000029	
